<?xml version="1.0" standalone="no"?>
<!DOCTYPE svg PUBLIC "-//W3C//DTD SVG 20010904//EN"
 "http://www.w3.org/TR/2001/REC-SVG-20010904/DTD/svg10.dtd">
<svg version="1.0" xmlns="http://www.w3.org/2000/svg"
 width="4170.000000pt" height="4170.000000pt" viewBox="0 0 4170.000000 4170.000000"
 preserveAspectRatio="xMidYMid meet">
<metadata>
Created by potrace 1.11, written by Peter Selinger 2001-2013
</metadata>
<g transform="translate(0.000000,4170.000000) scale(0.100000,-0.100000)"
fill="#000000" stroke="none">
<path d="M0 20850 c0 -11462 3 -20840 6 -20840 3 0 4690 4681 10415 10402
5726 5722 10413 10403 10418 10403 6 0 10612 -10578 19285 -19234 l1578 -1576
-6 9295 c-3 5112 -9 14491 -13 20843 -3 6351 -9 11547 -12 11547 -4 0 -4691
-4689 -10415 -10420 -5725 -5731 -10412 -10420 -10417 -10420 -4 0 -4691 4689
-10415 10420 -5725 5731 -10412 10420 -10416 10420 -4 0 -8 -9378 -8 -20840z"/>
</g>
</svg>
